<svg width="16" height="16" viewBox="0 0 16 16" fill="none" xmlns="http://www.w3.org/2000/svg">
<g clip-path="url(#clip0_139_31631)">
<path fill-rule="evenodd" clip-rule="evenodd" d="M9 0.960002C9 0.429808 8.55228 0 8 0C7.44772 0 7 0.429808 7 0.960002V2.55997H6.33333C5.44928 2.55997 4.60143 2.89711 3.97631 3.49723C3.35119 4.09735 3 4.91128 3 5.75998C3 6.60867 3.35119 7.42261 3.97631 8.02272C4.60143 8.62284 5.44928 8.95998 6.33333 8.95998H7V11.52H4C3.44772 11.52 3 11.9498 3 12.48C3 13.0102 3.44772 13.44 4 13.44H7V15.04C7 15.5702 7.44772 16 8 16C8.55228 16 9 15.5702 9 15.04V13.44H9.66667C10.5507 13.44 11.3986 13.1029 12.0237 12.5027C12.6488 11.9026 13 11.0887 13 10.24C13 9.39129 12.6488 8.57736 12.0237 7.97724C11.3986 7.37712 10.5507 7.03998 9.66667 7.03998H9V4.47997H11.3333C11.8856 4.47997 12.3333 4.05016 12.3333 3.51997C12.3333 2.98978 11.8856 2.55997 11.3333 2.55997H9V0.960002ZM7 4.47997H6.33333C5.97971 4.47997 5.64057 4.61483 5.39052 4.85488C5.14048 5.09492 5 5.4205 5 5.75998C5 6.09945 5.14048 6.42503 5.39052 6.66507C5.64057 6.90512 5.97971 7.03998 6.33333 7.03998H7V4.47997ZM9 8.95998V11.52H9.66667C10.0203 11.52 10.3594 11.3851 10.6095 11.1451C10.8595 10.905 11 10.5795 11 10.24C11 9.90051 10.8595 9.57494 10.6095 9.33489C10.3594 9.09484 10.0203 8.95998 9.66667 8.95998H9Z" fill="#1A0710" fill-opacity="0.65"/>
</g>
<defs>
<clipPath id="clip0_139_31631">
<rect width="16" height="16" fill="white"/>
</clipPath>
</defs>
</svg>
