<svg width="16" height="16" viewBox="0 0 16 16" fill="none" xmlns="http://www.w3.org/2000/svg">
<path d="M15 14V12.637C15 12.033 14.803 11.447 14.44 10.969C14.0817 10.4943 13.5748 10.1531 13 10M10.667 2.08701C11.2412 2.23327 11.7503 2.56665 12.1139 3.0345C12.4776 3.50234 12.6749 4.07798 12.6749 4.67051C12.6749 5.26304 12.4776 5.83868 12.1139 6.30653C11.7503 6.77437 11.2412 7.10775 10.667 7.25401M11 14V12.667C11.0035 11.9684 10.7419 11.2944 10.268 10.781C10.0427 10.5365 9.7694 10.341 9.46524 10.2067C9.16109 10.0723 8.83254 10.002 8.50003 10H3.50003C2.83703 10 2.20103 10.281 1.73203 10.781C1.25812 11.2944 0.99653 11.9684 1.00003 12.667V14H11ZM6.00003 7.33301C6.35455 7.33988 6.70687 7.27598 7.0364 7.14506C7.36593 7.01414 7.66604 6.81882 7.91918 6.57054C8.17232 6.32225 8.37342 6.02597 8.51069 5.69904C8.64797 5.37211 8.71868 5.02109 8.71868 4.66651C8.71868 4.31193 8.64797 3.96091 8.51069 3.63398C8.37342 3.30705 8.17232 3.01078 7.91918 2.76249C7.66604 2.5142 7.36593 2.31888 7.0364 2.18796C6.70687 2.05704 6.35455 1.99315 6.00003 2.00001C5.30178 2.01353 4.63668 2.30041 4.14765 2.799C3.65862 3.2976 3.38468 3.96812 3.38468 4.66651C3.38468 5.3649 3.65862 6.03543 4.14765 6.53402C4.63668 7.03261 5.30178 7.31949 6.00003 7.33301Z" stroke="#1A0710" stroke-opacity="0.65" stroke-width="2" stroke-linecap="round" stroke-linejoin="round"/>
</svg>
