<svg width="84" height="84" viewBox="0 0 84 84" fill="none" xmlns="http://www.w3.org/2000/svg">
<circle cx="42" cy="42" r="42" fill="url(#paint0_linear_2702_539)"/>
<path d="M46.0667 53.75L48.6 56.2833L53.6667 51.2167" stroke="#00AC4F" stroke-width="2.5" stroke-linecap="round" stroke-linejoin="round"/>
<path d="M42.2669 40.117C42.1003 40.1003 41.9003 40.1003 41.7169 40.117C37.7503 39.9836 34.6003 36.7336 34.6003 32.7336C34.5836 28.6503 37.9003 25.3336 41.9836 25.3336C46.0669 25.3336 49.3836 28.6503 49.3836 32.7336C49.3836 36.7336 46.2169 39.9836 42.2669 40.117Z" stroke="#00AC4F" stroke-width="2.5" stroke-linecap="round" stroke-linejoin="round"/>
<path d="M41.9832 58.3498C38.9498 58.3498 35.9332 57.5831 33.6332 56.0498C29.5998 53.3498 29.5998 48.9498 33.6332 46.2664C38.2165 43.1998 45.7332 43.1998 50.3165 46.2664" stroke="#00AC4F" stroke-width="2.5" stroke-linecap="round" stroke-linejoin="round"/>
<defs>
<linearGradient id="paint0_linear_2702_539" x1="74.55" y1="2.14197e-06" x2="42" y2="84" gradientUnits="userSpaceOnUse">
<stop stop-color="#D3FFE7"/>
<stop offset="1" stop-color="#EFFFF6"/>
</linearGradient>
</defs>
</svg>
